<?xml version="1.0" ?><svg height="400px" version="1.1" viewBox="0 0 400 400" width="400px" xmlns="http://www.w3.org/2000/svg" xmlns:xlink="http://www.w3.org/1999/xlink"><title/><desc/><defs><path d="M250,110 C277.614237,110 300,87.6142375 300,60 C300,32.3857625 277.614237,10 250,10 C222.385763,10 200,32.3857625 200,60 C200,87.6142375 222.385763,110 250,110 Z M250,96 C269.882251,96 286,79.882251 286,60 C286,40.117749 269.882251,24 250,24 C230.117749,24 214,40.117749 214,60 C214,79.882251 230.117749,96 250,96 Z" id="path-1"/><filter filterUnits="objectBoundingBox" height="200%" id="filter-2" width="200%" x="-50%" y="-50%"><feOffset dx="0" dy="2" in="SourceAlpha" result="shadowOffsetOuter1"/><feGaussianBlur in="shadowOffsetOuter1" result="shadowBlurOuter1" stdDeviation="2"/><feColorMatrix in="shadowBlurOuter1" type="matrix" values="0 0 0 0 0   0 0 0 0 0   0 0 0 0 0  0 0 0 0.5 0"/></filter><path d="M70.4968768,3.97501409 C70.2224593,1.77967443 71.7815232,0 73.9906062,0 L243.998229,0 C247.312916,0 249.667485,2.66012381 249.255484,5.9561251 L232.479991,140.160075 C231.11033,151.117363 221.042775,160 209.997217,160 L110.002783,160 C98.9555508,160 88.8890515,151.112412 87.5200093,140.160075 L70.4968768,3.97501409 Z" id="path-3"/><filter filterUnits="objectBoundingBox" height="200%" id="filter-4" width="200%" x="-50%" y="-50%"><feOffset dx="0" dy="2" in="SourceAlpha" result="shadowOffsetOuter1"/><feGaussianBlur in="shadowOffsetOuter1" result="shadowBlurOuter1" stdDeviation="2"/><feColorMatrix in="shadowBlurOuter1" type="matrix" values="0 0 0 0 0   0 0 0 0 0   0 0 0 0 0  0 0 0 0.5 0"/></filter><path d="M94.0344982,25.3926423 C93.7306067,22.9666529 95.4680414,21 97.910447,21 L222.08947,21 C224.533989,21 226.268382,22.9740585 225.965419,25.3926423 L213.572844,124.323523 C212.557497,132.429117 205.124317,139 196.951071,139 L123.048846,139 C114.884241,139 107.441804,132.424198 106.427073,124.323523 L94.0344982,25.3926423 Z" id="path-5"/><filter filterUnits="objectBoundingBox" height="200%" id="filter-6" width="200%" x="-50%" y="-50%"><feOffset dx="0" dy="2" in="SourceAlpha" result="shadowOffsetOuter1"/><feGaussianBlur in="shadowOffsetOuter1" result="shadowBlurOuter1" stdDeviation="1.5"/><feColorMatrix in="shadowBlurOuter1" type="matrix" values="0 0 0 0 0   0 0 0 0 0   0 0 0 0 0  0 0 0 0.5 0"/></filter><path d="M3.32504418,174.987566 C1.48867299,172.233009 2.69417877,170 6.00121896,170 L313.998781,170 C317.313163,170 318.513089,172.230367 316.674956,174.987566 L303.325044,195.012434 C301.488673,197.766991 297.318532,200 294.005979,200 L25.9940209,200 C22.6836146,200 18.5130889,197.769633 16.6749558,195.012434 L3.32504418,174.987566 Z" id="path-7"/><filter filterUnits="objectBoundingBox" height="200%" id="filter-8" width="200%" x="-50%" y="-50%"><feOffset dx="0" dy="2" in="SourceAlpha" result="shadowOffsetOuter1"/><feGaussianBlur in="shadowOffsetOuter1" result="shadowBlurOuter1" stdDeviation="2"/><feColorMatrix in="shadowBlurOuter1" type="matrix" values="0 0 0 0 0   0 0 0 0 0   0 0 0 0 0  0 0 0 0.5 0"/></filter></defs><g fill="none" fill-rule="evenodd" id="Page-1" stroke="none" stroke-width="1"><g id="cup"><ellipse cx="200" cy="200" fill="#82A3A1" id="background" rx="200" ry="200"/><g id="Group-12" transform="translate(40.000000, 100.000000)"><g id="Combined-Shape"><use fill="black" fill-opacity="1" filter="url(#filter-2)" xlink:href="#path-1"/><use fill="#F2ECD2" fill-rule="evenodd" xlink:href="#path-1"/></g><g id="Rectangle-18"><use fill="black" fill-opacity="1" filter="url(#filter-4)" xlink:href="#path-3"/><use fill="#F2ECD2" fill-rule="evenodd" xlink:href="#path-3"/></g><g id="Rectangle-18"><use fill="black" fill-opacity="1" filter="url(#filter-6)" xlink:href="#path-5"/><use fill="#EE7674" fill-rule="evenodd" xlink:href="#path-5"/></g><g id="Rectangle-17"><use fill="black" fill-opacity="1" filter="url(#filter-8)" xlink:href="#path-7"/><use fill="#545E75" fill-rule="evenodd" xlink:href="#path-7"/></g></g></g></g></svg>